<?xml version="1.0" standalone="no"?>
<!DOCTYPE svg PUBLIC "-//W3C//DTD SVG 20010904//EN"
 "http://www.w3.org/TR/2001/REC-SVG-20010904/DTD/svg10.dtd">
<svg version="1.0" xmlns="http://www.w3.org/2000/svg"
 width="60px" viewBox="0 0 150.000000 150.000000"
 preserveAspectRatio="xMidYMid meet">

<g transform="translate(0.000000,150.000000) scale(0.100000,-0.100000)"
fill="#ffff" stroke="none">
<path d="M665 1374 c-247 -38 -460 -230 -520 -469 -21 -83 -19 -235 4 -323 73
-281 356 -481 646 -458 103 8 170 28 261 78 141 79 265 242 299 391 22 96 20
234 -4 324 -52 201 -218 371 -420 434 -64 19 -208 32 -266 23z m512 -196 c17
-16 23 -33 23 -64 0 -40 -4 -46 -79 -113 -143 -129 -171 -198 -150 -369 12
-99 14 -103 45 -122 17 -11 37 -34 44 -50 20 -49 0 -80 -83 -128 -135 -76
-198 -92 -220 -56 -6 10 -21 7 -67 -13 -58 -25 -61 -25 -80 -8 -24 22 -26 62
-5 93 9 12 37 34 63 49 26 14 49 28 51 29 2 2 -11 20 -28 41 -44 53 -41 102 7
117 23 8 30 30 12 41 -13 8 -74 -87 -100 -155 -39 -104 -76 -130 -182 -130
-89 0 -88 -2 -62 88 24 87 116 366 124 377 3 6 15 33 25 60 35 97 112 251 144
288 27 31 40 37 71 37 68 0 93 -56 71 -153 l-9 -38 21 18 c12 10 24 20 27 23
15 16 114 83 175 119 81 47 126 53 162 19z"/>
<path d="M1020 1104 c-81 -49 -137 -92 -212 -161 -51 -47 -88 -56 -88 -23 0
11 9 54 21 96 24 88 20 127 -14 122 -29 -4 -66 -62 -127 -198 -49 -108 -190
-514 -190 -547 0 -13 8 -15 41 -10 56 7 93 45 125 130 36 93 100 172 140 172
26 0 31 -5 49 -58 22 -63 46 -87 70 -67 8 7 33 10 55 8 l41 -4 -8 51 c-29 178
6 275 143 404 67 62 85 85 82 103 -5 39 -45 34 -128 -18z"/>
<path d="M704 539 c-3 -6 -1 -16 5 -22 9 -9 11 -8 6 5 -4 11 0 18 12 21 15 4
16 5 1 6 -9 0 -20 -4 -24 -10z"/>
<path d="M919 448 c30 -34 22 -45 -53 -82 -49 -24 -75 -51 -62 -64 6 -5 185
85 203 102 28 27 19 40 -25 37 -31 -2 -50 3 -65 16 -19 15 -18 14 2 -9z"/>
<path d="M786 414 c-2 -6 -29 -23 -60 -39 -58 -29 -104 -70 -92 -82 8 -9 210
94 232 118 16 17 14 18 -30 16 -25 -1 -48 -7 -50 -13z"/>
</g>
</svg>
